<svg width="48" height="16" viewBox="0 0 48 16" fill="none" xmlns="http://www.w3.org/2000/svg">
<path d="M20.7995 15.7692H16.9111L19.3432 0.280746H23.2313L20.7995 15.7692Z" fill="#00579F"/>
<path d="M34.8949 0.659394C34.1279 0.346008 32.9115 -9.53674e-06 31.4074 -9.53674e-06C27.5675 -9.53674e-06 24.8635 2.10894 24.8469 5.12411C24.815 7.34869 26.7829 8.58428 28.2547 9.32603C29.7591 10.084 30.2704 10.5787 30.2704 11.2543C30.2551 12.2919 29.0548 12.7702 27.9354 12.7702C26.383 12.7702 25.5512 12.5236 24.2871 11.9463L23.7751 11.6989L23.231 15.1757C24.1429 15.6036 25.8231 15.9834 27.5675 16C31.6474 16 34.3036 13.9237 34.335 10.7105C34.3506 8.94738 33.3115 7.59638 31.0712 6.49241C29.7112 5.78373 28.8784 5.30588 28.8784 4.58078C28.8943 3.92159 29.5828 3.24642 31.118 3.24642C32.3821 3.21335 33.3108 3.5263 34.0144 3.83947L34.3661 4.00393L34.8949 0.659394Z" fill="#00579F"/>
<path d="M40.0637 10.2822C40.384 9.39238 41.6161 5.94864 41.6161 5.94864C41.6 5.98171 41.9357 5.04242 42.1277 4.4658L42.3995 5.80038C42.3995 5.80038 43.1358 9.5078 43.2957 10.2822C42.688 10.2822 40.8318 10.2822 40.0637 10.2822ZM44.8634 0.280746H41.8558C40.9283 0.280746 40.2236 0.560626 39.8235 1.56583L34.0479 15.769H38.1278C38.1278 15.769 38.7995 13.8573 38.9438 13.4456C39.3914 13.4456 43.3603 13.4456 43.9361 13.4456C44.0478 13.9894 44.4001 15.769 44.4001 15.769H48.0003L44.8634 0.280746Z" fill="#00579F"/>
<path d="M13.6634 0.280746L9.85548 10.8424L9.43936 8.70035C8.73535 6.22874 6.52742 3.54338 4.06348 2.20815L7.55143 15.7527H11.6632L17.775 0.280746H13.6634Z" fill="#00579F"/>
<path d="M6.31995 0.280746H0.0640009L0 0.593695C4.88003 1.87899 8.11199 4.97716 9.43985 8.701L8.07988 1.58269C7.85598 0.593476 7.16792 0.313377 6.31995 0.280746Z" fill="#F4A622"/>
</svg>
